# xmcd CD database file
#
# Track frame offsets:
#	187
#	22092
#	38907
#	58537
#	93647
#	117737
#	139390
#	158212
#	176535
#	194365
#	219377
#	238092
#	255470
#	265860
#	275382
#	289212
#	305142
#
# Disc length: 4307 seconds
#
# Revision: 0
# Processed by: cddbd v1.5.2PL0 Copyright (c) Steve Scherf et al.
# Submitted via: CDex 1.51
#
DISCID=0a10d111
DTITLE=Various Artist - World's Greatest Jazz Concert #2
DYEAR=1947
DGENRE=Jazz
TTITLE0=Fidgety Feet
TTITLE1=Sweet Lovin' Man
TTITLE2=Muskrat Ramble
TTITLE3=Basin Street Blues
TTITLE4=China Boy
TTITLE5=Lord, I Have No Friend But You/Travellin' Shoes
TTITLE6=Hell Down Yonder
TTITLE7=Original Jelly ROll Blues
TTITLE8=I Found A New Baby
TTITLE9=Baby Won't You Please Come Home
TTITLE10=St. James Infirmary
TTITLE11=Jazz Band Ball
TTITLE12=Up A Lazyt River
TTITLE13=Sweet Georgia Brown
TTITLE14=Ugly CHild
TTITLE15=Panama
TTITLE16=Dippermouth Blues
EXTD=YEAR: 1947
EXTT0=
EXTT1=
EXTT2=
EXTT3=
EXTT4=
EXTT5=
EXTT6=
EXTT7=
EXTT8=
EXTT9=
EXTT10=
EXTT11=
EXTT12=
EXTT13=
EXTT14=
EXTT15=
EXTT16=
PLAYORDER=
